<svg width="837" height="986" viewBox="0 0 837 986" fill="none" xmlns="http://www.w3.org/2000/svg">
<circle r="1.78761" transform="matrix(1 0 0 -1 5.76002 244.869)" fill="white"/>
<circle r="1.78761" transform="matrix(1 0 0 -1 37.5093 244.869)" fill="white"/>
<circle r="1.78761" transform="matrix(1 0 0 -1 69.2586 244.869)" fill="white"/>
<circle r="1.78761" transform="matrix(1 0 0 -1 101.008 244.869)" fill="white"/>
<circle r="1.78761" transform="matrix(1 0 0 -1 132.757 244.869)" fill="white"/>
<circle r="1.78761" transform="matrix(1 0 0 -1 164.506 244.869)" fill="white"/>
<circle r="1.78761" transform="matrix(1 0 0 -1 196.255 244.869)" fill="white"/>
<circle r="1.78761" transform="matrix(1 0 0 -1 228.005 244.869)" fill="white"/>
<circle r="1.78761" transform="matrix(1 0 0 -1 259.754 244.869)" fill="white"/>
<circle r="1.78761" transform="matrix(1 0 0 -1 291.503 244.869)" fill="white"/>
<circle r="1.78761" transform="matrix(1 0 0 -1 323.252 244.869)" fill="white"/>
<circle r="1.78761" transform="matrix(1 0 0 -1 355.002 244.869)" fill="white"/>
<circle r="1.78761" transform="matrix(1 0 0 -1 386.751 244.869)" fill="white"/>
<circle r="1.78761" transform="matrix(1 0 0 -1 418.5 244.869)" fill="white"/>
<circle r="1.78761" transform="matrix(1 0 0 -1 450.249 244.869)" fill="white"/>
<circle r="1.78761" transform="matrix(1 0 0 -1 481.999 244.869)" fill="white"/>
<circle r="1.78761" transform="matrix(1 0 0 -1 513.748 244.869)" fill="white"/>
<circle r="1.78761" transform="matrix(1 0 0 -1 545.497 244.869)" fill="white"/>
<circle r="1.78761" transform="matrix(1 0 0 -1 577.246 244.869)" fill="white"/>
<circle r="1.78761" transform="matrix(1 0 0 -1 608.995 244.869)" fill="white"/>
<circle r="1.78761" transform="matrix(1 0 0 -1 640.745 244.869)" fill="white"/>
<circle r="1.78761" transform="matrix(1 0 0 -1 672.494 244.869)" fill="white"/>
<circle r="1.78761" transform="matrix(1 0 0 -1 704.243 244.869)" fill="white"/>
<circle r="1.78761" transform="matrix(1 0 0 -1 735.992 244.869)" fill="white"/>
<circle r="1.78761" transform="matrix(1 0 0 -1 767.741 244.869)" fill="white"/>
<circle r="1.78761" transform="matrix(1 0 0 -1 799.491 244.869)" fill="white"/>
<circle r="1.78761" transform="matrix(1 0 0 -1 831.24 244.869)" fill="white"/>
<circle r="1.78761" transform="matrix(1 0 0 -1 5.76002 331.469)" fill="white"/>
<circle r="1.78761" transform="matrix(1 0 0 -1 37.5093 331.469)" fill="white"/>
<circle r="1.78761" transform="matrix(1 0 0 -1 69.2586 331.469)" fill="white"/>
<circle r="1.78761" transform="matrix(1 0 0 -1 101.008 331.469)" fill="white"/>
<circle r="1.78761" transform="matrix(1 0 0 -1 132.757 331.469)" fill="white"/>
<circle r="1.78761" transform="matrix(1 0 0 -1 164.506 331.469)" fill="white"/>
<circle r="1.78761" transform="matrix(1 0 0 -1 196.255 331.469)" fill="white"/>
<circle r="1.78761" transform="matrix(1 0 0 -1 228.005 331.469)" fill="white"/>
<circle r="1.78761" transform="matrix(1 0 0 -1 259.754 331.469)" fill="white"/>
<circle r="1.78761" transform="matrix(1 0 0 -1 291.503 331.469)" fill="white"/>
<circle r="1.78761" transform="matrix(1 0 0 -1 323.252 331.469)" fill="white"/>
<circle r="1.78761" transform="matrix(1 0 0 -1 355.002 331.469)" fill="white"/>
<circle r="1.78761" transform="matrix(1 0 0 -1 386.751 331.469)" fill="white"/>
<circle r="1.78761" transform="matrix(1 0 0 -1 418.5 331.469)" fill="white"/>
<circle r="1.78761" transform="matrix(1 0 0 -1 450.249 331.469)" fill="white"/>
<circle r="1.78761" transform="matrix(1 0 0 -1 481.999 331.469)" fill="white"/>
<circle r="1.78761" transform="matrix(1 0 0 -1 513.748 331.469)" fill="white"/>
<circle r="1.78761" transform="matrix(1 0 0 -1 545.497 331.469)" fill="white"/>
<circle r="1.78761" transform="matrix(1 0 0 -1 577.246 331.469)" fill="white"/>
<circle r="1.78761" transform="matrix(1 0 0 -1 608.995 331.469)" fill="white"/>
<circle r="1.78761" transform="matrix(1 0 0 -1 640.745 331.469)" fill="white"/>
<circle r="1.78761" transform="matrix(1 0 0 -1 672.494 331.469)" fill="white"/>
<circle r="1.78761" transform="matrix(1 0 0 -1 704.243 331.469)" fill="white"/>
<circle r="1.78761" transform="matrix(1 0 0 -1 735.992 331.469)" fill="white"/>
<circle r="1.78761" transform="matrix(1 0 0 -1 767.741 331.469)" fill="white"/>
<circle r="1.78761" transform="matrix(1 0 0 -1 799.491 331.469)" fill="white"/>
<circle r="1.78761" transform="matrix(1 0 0 -1 831.24 331.469)" fill="white"/>
<circle r="1.78761" transform="matrix(1 0 0 -1 5.76002 418.069)" fill="white"/>
<circle r="1.78761" transform="matrix(1 0 0 -1 37.5093 418.069)" fill="white"/>
<circle r="1.78761" transform="matrix(1 0 0 -1 69.2586 418.069)" fill="white"/>
<circle r="1.78761" transform="matrix(1 0 0 -1 101.008 418.069)" fill="white"/>
<circle r="1.78761" transform="matrix(1 0 0 -1 132.757 418.069)" fill="white"/>
<circle r="1.78761" transform="matrix(1 0 0 -1 164.506 418.069)" fill="white"/>
<circle r="1.78761" transform="matrix(1 0 0 -1 196.255 418.069)" fill="white"/>
<circle r="1.78761" transform="matrix(1 0 0 -1 228.005 418.069)" fill="white"/>
<circle r="1.78761" transform="matrix(1 0 0 -1 259.754 418.069)" fill="white"/>
<circle r="1.78761" transform="matrix(1 0 0 -1 291.503 418.069)" fill="white"/>
<circle r="1.78761" transform="matrix(1 0 0 -1 323.252 418.069)" fill="white"/>
<circle r="1.78761" transform="matrix(1 0 0 -1 355.001 418.069)" fill="white"/>
<circle r="1.78761" transform="matrix(1 0 0 -1 386.751 418.069)" fill="white"/>
<circle r="1.78761" transform="matrix(1 0 0 -1 418.5 418.069)" fill="white"/>
<circle r="1.78761" transform="matrix(1 0 0 -1 450.249 418.069)" fill="white"/>
<circle r="1.78761" transform="matrix(1 0 0 -1 481.999 418.069)" fill="white"/>
<circle r="1.78761" transform="matrix(1 0 0 -1 513.748 418.069)" fill="white"/>
<circle r="1.78761" transform="matrix(1 0 0 -1 545.497 418.069)" fill="white"/>
<circle r="1.78761" transform="matrix(1 0 0 -1 577.246 418.069)" fill="white"/>
<circle r="1.78761" transform="matrix(1 0 0 -1 608.995 418.069)" fill="white"/>
<circle r="1.78761" transform="matrix(1 0 0 -1 640.745 418.069)" fill="white"/>
<circle r="1.78761" transform="matrix(1 0 0 -1 672.494 418.069)" fill="white"/>
<circle r="1.78761" transform="matrix(1 0 0 -1 704.243 418.069)" fill="white"/>
<circle r="1.78761" transform="matrix(1 0 0 -1 735.992 418.069)" fill="white"/>
<circle r="1.78761" transform="matrix(1 0 0 -1 767.741 418.069)" fill="white"/>
<circle r="1.78761" transform="matrix(1 0 0 -1 799.491 418.069)" fill="white"/>
<circle r="1.78761" transform="matrix(1 0 0 -1 831.24 418.069)" fill="white"/>
<circle r="1.78761" transform="matrix(1 0 0 -1 5.76002 504.669)" fill="white"/>
<circle r="1.78761" transform="matrix(1 0 0 -1 37.5093 504.669)" fill="white"/>
<circle r="1.78761" transform="matrix(1 0 0 -1 69.2586 504.669)" fill="white"/>
<circle r="1.78761" transform="matrix(1 0 0 -1 101.008 504.669)" fill="white"/>
<circle r="1.78761" transform="matrix(1 0 0 -1 132.757 504.669)" fill="white"/>
<circle r="1.78761" transform="matrix(1 0 0 -1 164.506 504.669)" fill="white"/>
<circle r="1.78761" transform="matrix(1 0 0 -1 196.255 504.669)" fill="white"/>
<circle r="1.78761" transform="matrix(1 0 0 -1 228.005 504.669)" fill="white"/>
<circle r="1.78761" transform="matrix(1 0 0 -1 259.754 504.669)" fill="white"/>
<circle r="1.78761" transform="matrix(1 0 0 -1 291.503 504.669)" fill="white"/>
<circle r="1.78761" transform="matrix(1 0 0 -1 323.252 504.669)" fill="white"/>
<circle r="1.78761" transform="matrix(1 0 0 -1 355.001 504.669)" fill="white"/>
<circle r="1.78761" transform="matrix(1 0 0 -1 386.751 504.669)" fill="white"/>
<circle r="1.78761" transform="matrix(1 0 0 -1 418.5 504.669)" fill="white"/>
<circle r="1.78761" transform="matrix(1 0 0 -1 450.249 504.669)" fill="white"/>
<circle r="1.78761" transform="matrix(1 0 0 -1 481.999 504.669)" fill="white"/>
<circle r="1.78761" transform="matrix(1 0 0 -1 513.748 504.669)" fill="white"/>
<circle r="1.78761" transform="matrix(1 0 0 -1 545.497 504.669)" fill="white"/>
<circle r="1.78761" transform="matrix(1 0 0 -1 577.246 504.669)" fill="white"/>
<circle r="1.78761" transform="matrix(1 0 0 -1 608.995 504.669)" fill="white"/>
<circle r="1.78761" transform="matrix(1 0 0 -1 640.745 504.669)" fill="white"/>
<circle r="1.78761" transform="matrix(1 0 0 -1 672.494 504.669)" fill="white"/>
<circle r="1.78761" transform="matrix(1 0 0 -1 704.243 504.669)" fill="white"/>
<circle r="1.78761" transform="matrix(1 0 0 -1 735.992 504.669)" fill="white"/>
<circle r="1.78761" transform="matrix(1 0 0 -1 767.741 504.669)" fill="white"/>
<circle r="1.78761" transform="matrix(1 0 0 -1 799.491 504.669)" fill="white"/>
<circle r="1.78761" transform="matrix(1 0 0 -1 831.24 504.669)" fill="white"/>
<circle r="1.78761" transform="matrix(1 0 0 -1 5.76002 591.269)" fill="white"/>
<circle r="1.78761" transform="matrix(1 0 0 -1 37.5093 591.269)" fill="white"/>
<circle r="1.78761" transform="matrix(1 0 0 -1 69.2586 591.269)" fill="white"/>
<circle r="1.78761" transform="matrix(1 0 0 -1 101.008 591.269)" fill="white"/>
<circle r="1.78761" transform="matrix(1 0 0 -1 132.757 591.269)" fill="white"/>
<circle r="1.78761" transform="matrix(1 0 0 -1 164.506 591.269)" fill="white"/>
<circle r="1.78761" transform="matrix(1 0 0 -1 196.255 591.269)" fill="white"/>
<circle r="1.78761" transform="matrix(1 0 0 -1 228.005 591.269)" fill="white"/>
<circle r="1.78761" transform="matrix(1 0 0 -1 259.754 591.269)" fill="white"/>
<circle r="1.78761" transform="matrix(1 0 0 -1 291.503 591.269)" fill="white"/>
<circle r="1.78761" transform="matrix(1 0 0 -1 323.252 591.269)" fill="white"/>
<circle r="1.78761" transform="matrix(1 0 0 -1 355.001 591.269)" fill="white"/>
<circle r="1.78761" transform="matrix(1 0 0 -1 386.751 591.269)" fill="white"/>
<circle r="1.78761" transform="matrix(1 0 0 -1 418.5 591.269)" fill="white"/>
<circle r="1.78761" transform="matrix(1 0 0 -1 450.249 591.269)" fill="white"/>
<circle r="1.78761" transform="matrix(1 0 0 -1 481.999 591.269)" fill="white"/>
<circle r="1.78761" transform="matrix(1 0 0 -1 513.748 591.269)" fill="white"/>
<circle r="1.78761" transform="matrix(1 0 0 -1 545.497 591.269)" fill="white"/>
<circle r="1.78761" transform="matrix(1 0 0 -1 577.246 591.269)" fill="white"/>
<circle r="1.78761" transform="matrix(1 0 0 -1 608.995 591.269)" fill="white"/>
<circle r="1.78761" transform="matrix(1 0 0 -1 640.745 591.269)" fill="white"/>
<circle r="1.78761" transform="matrix(1 0 0 -1 672.494 591.269)" fill="white"/>
<circle r="1.78761" transform="matrix(1 0 0 -1 704.243 591.269)" fill="white"/>
<circle r="1.78761" transform="matrix(1 0 0 -1 735.992 591.269)" fill="white"/>
<circle r="1.78761" transform="matrix(1 0 0 -1 767.741 591.269)" fill="white"/>
<circle r="1.78761" transform="matrix(1 0 0 -1 799.491 591.269)" fill="white"/>
<circle r="1.78761" transform="matrix(1 0 0 -1 831.24 591.269)" fill="white"/>
<circle r="1.78761" transform="matrix(1 0 0 -1 5.76002 677.869)" fill="white"/>
<circle r="1.78761" transform="matrix(1 0 0 -1 37.5093 677.869)" fill="white"/>
<circle r="1.78761" transform="matrix(1 0 0 -1 69.2586 677.869)" fill="white"/>
<circle r="1.78761" transform="matrix(1 0 0 -1 101.008 677.869)" fill="white"/>
<circle r="1.78761" transform="matrix(1 0 0 -1 132.757 677.869)" fill="white"/>
<circle r="1.78761" transform="matrix(1 0 0 -1 164.506 677.869)" fill="white"/>
<circle r="1.78761" transform="matrix(1 0 0 -1 196.255 677.869)" fill="white"/>
<circle r="1.78761" transform="matrix(1 0 0 -1 228.005 677.869)" fill="white"/>
<circle r="1.78761" transform="matrix(1 0 0 -1 259.754 677.869)" fill="white"/>
<circle r="1.78761" transform="matrix(1 0 0 -1 291.503 677.869)" fill="white"/>
<circle r="1.78761" transform="matrix(1 0 0 -1 323.252 677.869)" fill="white"/>
<circle r="1.78761" transform="matrix(1 0 0 -1 355.002 677.869)" fill="white"/>
<circle r="1.78761" transform="matrix(1 0 0 -1 386.751 677.869)" fill="white"/>
<circle r="1.78761" transform="matrix(1 0 0 -1 418.5 677.869)" fill="white"/>
<circle r="1.78761" transform="matrix(1 0 0 -1 450.249 677.869)" fill="white"/>
<circle r="1.78761" transform="matrix(1 0 0 -1 481.999 677.869)" fill="white"/>
<circle r="1.78761" transform="matrix(1 0 0 -1 513.748 677.869)" fill="white"/>
<circle r="1.78761" transform="matrix(1 0 0 -1 545.497 677.869)" fill="white"/>
<circle r="1.78761" transform="matrix(1 0 0 -1 577.246 677.869)" fill="white"/>
<circle r="1.78761" transform="matrix(1 0 0 -1 608.995 677.869)" fill="white"/>
<circle r="1.78761" transform="matrix(1 0 0 -1 640.745 677.869)" fill="white"/>
<circle r="1.78761" transform="matrix(1 0 0 -1 672.494 677.869)" fill="white"/>
<circle r="1.78761" transform="matrix(1 0 0 -1 704.243 677.869)" fill="white"/>
<circle r="1.78761" transform="matrix(1 0 0 -1 735.992 677.869)" fill="white"/>
<circle r="1.78761" transform="matrix(1 0 0 -1 767.741 677.869)" fill="white"/>
<circle r="1.78761" transform="matrix(1 0 0 -1 799.491 677.869)" fill="white"/>
<circle r="1.78761" transform="matrix(1 0 0 -1 831.24 677.869)" fill="white"/>
<circle r="1.78761" transform="matrix(1 0 0 -1 5.76002 764.469)" fill="white"/>
<circle r="1.78761" transform="matrix(1 0 0 -1 37.5093 764.469)" fill="white"/>
<circle r="1.78761" transform="matrix(1 0 0 -1 69.2586 764.469)" fill="white"/>
<circle r="1.78761" transform="matrix(1 0 0 -1 101.008 764.469)" fill="white"/>
<circle r="1.78761" transform="matrix(1 0 0 -1 132.757 764.469)" fill="white"/>
<circle r="1.78761" transform="matrix(1 0 0 -1 164.506 764.469)" fill="white"/>
<circle r="1.78761" transform="matrix(1 0 0 -1 196.255 764.469)" fill="white"/>
<circle r="1.78761" transform="matrix(1 0 0 -1 228.005 764.469)" fill="white"/>
<circle r="1.78761" transform="matrix(1 0 0 -1 259.754 764.469)" fill="white"/>
<circle r="1.78761" transform="matrix(1 0 0 -1 291.503 764.469)" fill="white"/>
<circle r="1.78761" transform="matrix(1 0 0 -1 323.252 764.469)" fill="white"/>
<circle r="1.78761" transform="matrix(1 0 0 -1 355.002 764.469)" fill="white"/>
<circle r="1.78761" transform="matrix(1 0 0 -1 386.751 764.469)" fill="white"/>
<circle r="1.78761" transform="matrix(1 0 0 -1 418.5 764.469)" fill="white"/>
<circle r="1.78761" transform="matrix(1 0 0 -1 450.249 764.469)" fill="white"/>
<circle r="1.78761" transform="matrix(1 0 0 -1 481.999 764.469)" fill="white"/>
<circle r="1.78761" transform="matrix(1 0 0 -1 513.748 764.469)" fill="white"/>
<circle r="1.78761" transform="matrix(1 0 0 -1 545.497 764.469)" fill="white"/>
<circle r="1.78761" transform="matrix(1 0 0 -1 577.246 764.469)" fill="white"/>
<circle r="1.78761" transform="matrix(1 0 0 -1 608.995 764.469)" fill="white"/>
<circle r="1.78761" transform="matrix(1 0 0 -1 640.745 764.469)" fill="white"/>
<circle r="1.78761" transform="matrix(1 0 0 -1 672.494 764.469)" fill="white"/>
<circle r="1.78761" transform="matrix(1 0 0 -1 704.243 764.469)" fill="white"/>
<circle r="1.78761" transform="matrix(1 0 0 -1 735.992 764.469)" fill="white"/>
<circle r="1.78761" transform="matrix(1 0 0 -1 767.741 764.469)" fill="white"/>
<circle r="1.78761" transform="matrix(1 0 0 -1 799.491 764.469)" fill="white"/>
<circle r="1.78761" transform="matrix(1 0 0 -1 831.24 764.469)" fill="white"/>
<circle r="1.78761" transform="matrix(1 0 0 -1 5.76002 851.069)" fill="white"/>
<circle r="1.78761" transform="matrix(1 0 0 -1 37.5093 851.069)" fill="white"/>
<circle r="1.78761" transform="matrix(1 0 0 -1 69.2586 851.069)" fill="white"/>
<circle r="1.78761" transform="matrix(1 0 0 -1 101.008 851.069)" fill="white"/>
<circle r="1.78761" transform="matrix(1 0 0 -1 132.757 851.069)" fill="white"/>
<circle r="1.78761" transform="matrix(1 0 0 -1 164.506 851.069)" fill="white"/>
<circle r="1.78761" transform="matrix(1 0 0 -1 196.255 851.069)" fill="white"/>
<circle r="1.78761" transform="matrix(1 0 0 -1 228.005 851.069)" fill="white"/>
<circle r="1.78761" transform="matrix(1 0 0 -1 259.754 851.069)" fill="white"/>
<circle r="1.78761" transform="matrix(1 0 0 -1 291.503 851.069)" fill="white"/>
<circle r="1.78761" transform="matrix(1 0 0 -1 323.252 851.069)" fill="white"/>
<circle r="1.78761" transform="matrix(1 0 0 -1 355.002 851.069)" fill="white"/>
<circle r="1.78761" transform="matrix(1 0 0 -1 386.751 851.069)" fill="white"/>
<circle r="1.78761" transform="matrix(1 0 0 -1 418.5 851.069)" fill="white"/>
<circle r="1.78761" transform="matrix(1 0 0 -1 450.249 851.069)" fill="white"/>
<circle r="1.78761" transform="matrix(1 0 0 -1 481.999 851.069)" fill="white"/>
<circle r="1.78761" transform="matrix(1 0 0 -1 513.748 851.069)" fill="white"/>
<circle r="1.78761" transform="matrix(1 0 0 -1 545.497 851.069)" fill="white"/>
<circle r="1.78761" transform="matrix(1 0 0 -1 577.246 851.069)" fill="white"/>
<circle r="1.78761" transform="matrix(1 0 0 -1 608.995 851.069)" fill="white"/>
<circle r="1.78761" transform="matrix(1 0 0 -1 640.745 851.069)" fill="white"/>
<circle r="1.78761" transform="matrix(1 0 0 -1 672.494 851.069)" fill="white"/>
<circle r="1.78761" transform="matrix(1 0 0 -1 704.243 851.069)" fill="white"/>
<circle r="1.78761" transform="matrix(1 0 0 -1 735.992 851.069)" fill="white"/>
<circle r="1.78761" transform="matrix(1 0 0 -1 767.741 851.069)" fill="white"/>
<circle r="1.78761" transform="matrix(1 0 0 -1 799.491 851.069)" fill="white"/>
<circle r="1.78761" transform="matrix(1 0 0 -1 831.24 851.069)" fill="white"/>
<circle r="1.78761" transform="matrix(1 0 0 -1 5.76002 937.669)" fill="white"/>
<circle r="1.78761" transform="matrix(1 0 0 -1 37.5093 937.669)" fill="white"/>
<circle r="1.78761" transform="matrix(1 0 0 -1 69.2586 937.669)" fill="white"/>
<circle r="1.78761" transform="matrix(1 0 0 -1 101.008 937.669)" fill="white"/>
<circle r="1.78761" transform="matrix(1 0 0 -1 132.757 937.669)" fill="white"/>
<circle r="1.78761" transform="matrix(1 0 0 -1 164.506 937.669)" fill="white"/>
<circle r="1.78761" transform="matrix(1 0 0 -1 196.255 937.669)" fill="white"/>
<circle r="1.78761" transform="matrix(1 0 0 -1 228.005 937.669)" fill="white"/>
<circle r="1.78761" transform="matrix(1 0 0 -1 259.754 937.669)" fill="white"/>
<circle r="1.78761" transform="matrix(1 0 0 -1 291.503 937.669)" fill="white"/>
<circle r="1.78761" transform="matrix(1 0 0 -1 323.252 937.669)" fill="white"/>
<circle r="1.78761" transform="matrix(1 0 0 -1 355.002 937.669)" fill="white"/>
<circle r="1.78761" transform="matrix(1 0 0 -1 386.751 937.669)" fill="white"/>
<circle r="1.78761" transform="matrix(1 0 0 -1 418.5 937.669)" fill="white"/>
<circle r="1.78761" transform="matrix(1 0 0 -1 450.249 937.669)" fill="white"/>
<circle r="1.78761" transform="matrix(1 0 0 -1 481.999 937.669)" fill="white"/>
<circle r="1.78761" transform="matrix(1 0 0 -1 513.748 937.669)" fill="white"/>
<circle r="1.78761" transform="matrix(1 0 0 -1 545.497 937.669)" fill="white"/>
<circle r="1.78761" transform="matrix(1 0 0 -1 577.246 937.669)" fill="white"/>
<circle r="1.78761" transform="matrix(1 0 0 -1 608.995 937.669)" fill="white"/>
<circle r="1.78761" transform="matrix(1 0 0 -1 640.745 937.669)" fill="white"/>
<circle r="1.78761" transform="matrix(1 0 0 -1 672.494 937.669)" fill="white"/>
<circle r="1.78761" transform="matrix(1 0 0 -1 704.243 937.669)" fill="white"/>
<circle r="1.78761" transform="matrix(1 0 0 -1 735.992 937.669)" fill="white"/>
<circle r="1.78761" transform="matrix(1 0 0 -1 767.741 937.669)" fill="white"/>
<circle r="1.78761" transform="matrix(1 0 0 -1 799.491 937.669)" fill="white"/>
<circle r="1.78761" transform="matrix(1 0 0 -1 831.24 937.669)" fill="white"/>
<path fill-rule="evenodd" clip-rule="evenodd" d="M418.764 875.549H344.928V707.366H260.836V824.958H187V505H260.836V633.53H418.764V707.366H418.764V875.549Z" fill="url(#paint0_linear_327_20)"/>
<path fill-rule="evenodd" clip-rule="evenodd" d="M303.042 278.275V352.112V524.397V598.233L303.042 598.234H376.878V598.233L534.806 598.233V278.275L534.806 278.275H303.042ZM460.969 352.112H376.878V524.397H460.969V352.112Z" fill="url(#paint1_linear_327_20)"/>
<path fill-rule="evenodd" clip-rule="evenodd" d="M492.836 0H419V242.019L576.928 242.019V370.549H650.764L650.764 242.019V168.183L650.764 50.5914H576.928V168.183H492.836V0Z" fill="url(#paint2_linear_327_20)"/>
<defs>
<linearGradient id="paint0_linear_327_20" x1="418.764" y1="670.448" x2="187" y2="670.448" gradientUnits="userSpaceOnUse">
<stop stop-color="#00FFC2"/>
<stop offset="1" stop-color="#43A1F9"/>
</linearGradient>
<linearGradient id="paint1_linear_327_20" x1="303.042" y1="315.194" x2="534.806" y2="315.194" gradientUnits="userSpaceOnUse">
<stop stop-color="#00FFC2"/>
<stop offset="1" stop-color="#43A1F9"/>
</linearGradient>
<linearGradient id="paint2_linear_327_20" x1="455.918" y1="0" x2="455.918" y2="242.019" gradientUnits="userSpaceOnUse">
<stop stop-color="#00FFC2"/>
<stop offset="1" stop-color="#43A1F9"/>
</linearGradient>
</defs>
</svg>
