<svg width="34" height="35" viewBox="0 0 34 35" fill="none" xmlns="http://www.w3.org/2000/svg">
<path d="M33.8905 10.5353C33.8714 9.10767 33.6038 7.69428 33.0994 6.3583C32.662 5.23141 31.994 4.20799 31.138 3.35343C30.2821 2.49888 29.2569 1.83197 28.1282 1.39533C26.8072 0.900274 25.4116 0.632587 24.0009 0.60367C22.1846 0.522619 21.6087 0.5 16.9981 0.5C12.3875 0.5 11.7965 0.5 9.99345 0.60367C8.58337 0.6328 7.18846 0.900483 5.86806 1.39533C4.73911 1.83167 3.71383 2.49847 2.85781 3.35306C2.0018 4.20766 1.33389 5.23123 0.896823 6.3583C0.399947 7.6761 0.132396 9.06901 0.105731 10.4768C0.0245446 12.292 0 12.8669 0 17.4698C0 22.0728 -1.40671e-08 22.6609 0.105731 24.4629C0.134052 25.8728 0.400266 27.2638 0.896823 28.5852C1.33462 29.7119 2.00302 30.735 2.85933 31.5893C3.71564 32.4435 4.74101 33.11 5.86995 33.5462C7.18674 34.0612 8.58189 34.348 9.99534 34.3944C11.8135 34.4755 12.3894 34.5 17 34.5C21.6106 34.5 22.2016 34.5 24.0047 34.3944C25.4153 34.3667 26.811 34.0997 28.1319 33.6047C29.2604 33.1675 30.2853 32.5004 31.1412 31.646C31.9971 30.7915 32.6653 29.7683 33.1032 28.6417C33.5997 27.3223 33.8659 25.9312 33.8943 24.5194C33.9755 22.7061 34 22.1312 34 17.5264C33.9962 12.9234 33.9962 12.3391 33.8905 10.5353ZM16.9868 26.1744C12.1647 26.1744 8.25833 22.2745 8.25833 17.4604C8.25833 12.6464 12.1647 8.74648 16.9868 8.74648C19.3017 8.74648 21.5218 9.66455 23.1587 11.2987C24.7956 12.9329 25.7152 15.1493 25.7152 17.4604C25.7152 19.7715 24.7956 21.9879 23.1587 23.6221C21.5218 25.2563 19.3017 26.1744 16.9868 26.1744ZM26.0626 10.4561C25.7953 10.4563 25.5305 10.404 25.2835 10.3019C25.0364 10.1999 24.8119 10.0502 24.6229 9.86151C24.4339 9.67278 24.2839 9.44868 24.1817 9.20204C24.0795 8.9554 24.0271 8.69107 24.0273 8.42416C24.0273 8.15745 24.0799 7.89335 24.1822 7.64694C24.2844 7.40052 24.4343 7.17663 24.6232 6.98803C24.8121 6.79944 25.0364 6.64984 25.2832 6.54777C25.53 6.4457 25.7945 6.39317 26.0617 6.39317C26.3289 6.39317 26.5934 6.4457 26.8402 6.54777C27.087 6.64984 27.3113 6.79944 27.5002 6.98803C27.6891 7.17663 27.839 7.40052 27.9412 7.64694C28.0434 7.89335 28.0961 8.15745 28.0961 8.42416C28.0961 9.54757 27.186 10.4561 26.0626 10.4561Z" fill="white"/>
<path d="M17 23.5C20.3137 23.5 23 20.8137 23 17.5C23 14.1863 20.3137 11.5 17 11.5C13.6863 11.5 11 14.1863 11 17.5C11 20.8137 13.6863 23.5 17 23.5Z" fill="white"/>
</svg>
