<svg width="34" height="34" viewBox="0 0 34 34" fill="none" xmlns="http://www.w3.org/2000/svg">
<path d="M6.66659 0.0090332C3.00422 0.0090332 0.0067749 3.00641 0.0067749 6.66885V27.3354C0.0067749 30.9978 3.00415 33.9942 6.66659 33.9942H27.3332C30.9956 33.9942 33.9919 30.9979 33.9919 27.3354V6.66885C33.9919 3.00647 30.9956 0.0090332 27.3332 0.0090332H6.66659ZM8.34164 5.61727C10.0977 5.61727 11.1793 6.77007 11.2127 8.28542C11.2127 9.76731 10.0976 10.9525 8.30767 10.9525H8.27473C6.55212 10.9525 5.43872 9.76737 5.43872 8.28542C5.43872 6.7701 6.58581 5.61727 8.3416 5.61727H8.34164ZM23.4744 12.6998C26.8515 12.6998 29.3832 14.9072 29.3832 19.6506V28.5059H24.2508V20.2443C24.2508 18.1683 23.508 16.7519 21.6506 16.7519C20.2327 16.7519 19.3875 17.7066 19.0164 18.6288C18.8809 18.9587 18.8476 19.4195 18.8476 19.8811V28.5059H13.7152C13.7152 28.5059 13.7825 14.5111 13.7152 13.062H18.8486V15.249C19.5307 14.1967 20.7507 12.6998 23.4744 12.6998V12.6998ZM5.74145 13.0631H10.8739V28.506H5.74145V13.0631Z" fill="white"/>
</svg>
