<svg width="165" height="37" viewBox="0 0 165 37" fill="none" xmlns="http://www.w3.org/2000/svg">
<path fill-rule="evenodd" clip-rule="evenodd" d="M3.80386 18.9338C3.76515 17.2144 4.78451 15.6402 6.02322 14.3112L5.99419 14.337C1.29096 14.6983 -1.22517 19.5725 0.594186 23.8596C2.01677 27.2854 6.11354 28.4596 9.43612 27.6789C14.52 26.6918 16.9716 21.737 17.8877 17.1467C18.1356 15.9233 18.3451 14.6927 18.5161 13.4567C18.5315 13.521 18.5468 13.5855 18.5619 13.6499C18.6558 13.9827 18.7428 14.3273 18.831 14.6768C19.0882 15.6957 19.3557 16.7558 19.8361 17.6854C20.1516 18.2497 20.6248 18.7098 21.1977 19.0095C21.7706 19.3091 22.4184 19.4352 23.0619 19.3725C23.5232 19.3221 23.9695 19.1786 24.3737 18.9507C24.7779 18.7228 25.1317 18.4153 25.4135 18.0467C25.8365 17.4545 26.1884 16.8146 26.4619 16.1402C26.6398 15.7391 26.8158 15.3362 26.9917 14.9335C27.6341 13.4631 28.2754 11.9951 28.9996 10.6259C29.3443 12.3982 29.5496 14.209 29.7567 16.0366C29.7873 16.3063 29.8179 16.5763 29.849 16.8467C30.0901 19.1437 30.2733 21.4726 30.458 23.8199C30.5723 25.2734 30.6872 26.734 30.8168 28.1983H37.6587C37.9898 24.2132 38.0415 20.2099 37.8135 16.2176C37.5845 12.537 37.2006 8.74345 35.9877 5.1628C34.691 1.24345 31.7426 -1.30816 27.5039 0.704741C24.9554 2.05537 23.4066 4.54954 22.3099 7.28827C22.1287 6.89075 21.9465 6.50789 21.7651 6.1499C21.7183 6.06222 21.6721 5.97499 21.6262 5.88821C21.1857 5.05553 20.7669 4.26368 19.9168 3.49829C19.0813 2.69829 17.4716 2.35958 16.3684 3.05958C14.8047 3.98437 14.6182 5.84153 14.4613 7.4028C14.4518 7.49709 14.4425 7.5903 14.4329 7.68216C14.388 8.21094 14.3467 8.74173 14.3055 9.27285C14.1244 11.6027 13.9429 13.9388 13.449 16.1402C12.7781 19.0596 11.6168 22.4886 8.58451 23.1047C7.99179 23.1701 7.39195 23.1118 6.82294 22.9334C6.25392 22.755 5.72812 22.4605 5.27878 22.0685C4.82944 21.6764 4.46635 21.1954 4.21248 20.6558C3.9586 20.1163 3.81946 19.5299 3.80386 18.9338ZM25.2483 14.1694C25.3046 14.2693 25.3608 14.3605 25.4168 14.4402C25.4042 14.4027 25.3868 14.3669 25.3651 14.3338C25.3279 14.2776 25.289 14.2228 25.2483 14.1694ZM30.8638 7.91342C30.8886 7.90187 30.9127 7.88932 30.9361 7.87571C31.0411 7.80972 30.9816 7.81624 30.8638 7.91342ZM32.0587 7.28218C32.174 7.56308 32.2374 7.86254 32.2458 8.16605C32.2459 8.18475 32.2522 8.20289 32.2638 8.21758C32.2754 8.23227 32.2916 8.24267 32.3097 8.24711C32.3279 8.25156 32.347 8.24981 32.3641 8.24214C32.3811 8.23446 32.3951 8.22131 32.4039 8.20476C32.5944 7.85021 32.7046 7.45806 32.7265 7.05614C32.7485 6.65423 32.6817 6.25241 32.5308 5.87923C32.38 5.50604 32.1489 5.17064 31.8538 4.89683C31.5588 4.62303 31.2071 4.41754 30.8237 4.29496C30.4403 4.17238 30.0346 4.13572 29.6355 4.18757C29.2363 4.23942 28.8535 4.37852 28.5141 4.59498C28.1748 4.81145 27.8872 5.09997 27.6719 5.44007C27.4566 5.78016 27.3189 6.16349 27.2684 6.56282C27.2673 6.57153 27.2692 6.58037 27.2738 6.58787C27.2783 6.59536 27.2853 6.60108 27.2936 6.60408C27.3018 6.60709 27.3109 6.60719 27.3192 6.60438C27.3275 6.60157 27.3346 6.59602 27.3394 6.58863C27.6362 6.20426 28.0301 5.90587 28.4805 5.7241C28.9308 5.54233 29.4215 5.48374 29.902 5.55436C30.3825 5.62497 30.8355 5.82224 31.2146 6.1259C31.5936 6.42955 31.885 6.82865 32.0587 7.28218Z" fill="url(#paint0_linear_69_12)"/>
<path d="M40.2735 22.7634C40.2735 21.6434 40.4935 20.6634 40.9335 19.8234C41.3868 18.9701 42.0068 18.3167 42.7935 17.8634C43.5935 17.3967 44.4935 17.1634 45.4935 17.1634C46.5335 17.1634 47.4268 17.4034 48.1735 17.8834C48.9335 18.3634 49.4801 18.9767 49.8135 19.7234V17.3234H51.2135V28.2434H49.8135V25.8234C49.4668 26.5701 48.9135 27.1901 48.1535 27.6834C47.4068 28.1634 46.5135 28.4034 45.4735 28.4034C44.4868 28.4034 43.5935 28.1701 42.7935 27.7034C42.0068 27.2367 41.3868 26.5767 40.9335 25.7234C40.4935 24.8701 40.2735 23.8834 40.2735 22.7634ZM49.8135 22.7834C49.8135 21.9034 49.6335 21.1301 49.2735 20.4634C48.9135 19.7967 48.4201 19.2834 47.7935 18.9234C47.1801 18.5634 46.5001 18.3834 45.7535 18.3834C44.9801 18.3834 44.2868 18.5567 43.6735 18.9034C43.0601 19.2501 42.5735 19.7567 42.2135 20.4234C41.8668 21.0767 41.6935 21.8567 41.6935 22.7634C41.6935 23.6567 41.8668 24.4434 42.2135 25.1234C42.5735 25.7901 43.0601 26.3034 43.6735 26.6634C44.2868 27.0101 44.9801 27.1834 45.7535 27.1834C46.5001 27.1834 47.1801 27.0034 47.7935 26.6434C48.4201 26.2834 48.9135 25.7701 49.2735 25.1034C49.6335 24.4367 49.8135 23.6634 49.8135 22.7834ZM56.2296 18.5034V25.2834C56.2296 25.9501 56.3562 26.4101 56.6096 26.6634C56.8629 26.9167 57.3096 27.0434 57.9496 27.0434H59.2296V28.2434H57.7296C56.7429 28.2434 56.0096 28.0167 55.5296 27.5634C55.0496 27.0967 54.8096 26.3367 54.8096 25.2834V18.5034H53.2896V17.3234H54.8096V14.5834H56.2296V17.3234H59.2296V18.5034H56.2296ZM66.7385 17.1234C67.5651 17.1234 68.3051 17.2967 68.9585 17.6434C69.6251 17.9901 70.1451 18.5234 70.5185 19.2434C70.9051 19.9501 71.0985 20.8167 71.0985 21.8434V28.2434H69.7185V22.0034C69.7185 20.8167 69.4185 19.9101 68.8185 19.2834C68.2318 18.6567 67.4251 18.3434 66.3985 18.3434C65.3451 18.3434 64.5051 18.6767 63.8785 19.3434C63.2518 20.0101 62.9385 20.9901 62.9385 22.2834V28.2434H61.5385V13.4434H62.9385V19.1834C63.2851 18.5301 63.7918 18.0234 64.4585 17.6634C65.1385 17.3034 65.8985 17.1234 66.7385 17.1234ZM84.0747 22.2234C84.0747 22.7034 84.0614 23.0701 84.0347 23.3234H74.9747C75.0147 24.1501 75.2147 24.8567 75.5747 25.4434C75.9347 26.0301 76.4081 26.4767 76.9947 26.7834C77.5814 27.0767 78.2214 27.2234 78.9147 27.2234C79.8214 27.2234 80.5814 27.0034 81.1947 26.5634C81.8214 26.1234 82.2347 25.5301 82.4347 24.7834H83.9147C83.6481 25.8501 83.0747 26.7234 82.1947 27.4034C81.3281 28.0701 80.2347 28.4034 78.9147 28.4034C77.8881 28.4034 76.9681 28.1767 76.1547 27.7234C75.3414 27.2567 74.7014 26.6034 74.2347 25.7634C73.7814 24.9101 73.5547 23.9167 73.5547 22.7834C73.5547 21.6501 73.7814 20.6567 74.2347 19.8034C74.6881 18.9501 75.3214 18.2967 76.1347 17.8434C76.9481 17.3901 77.8747 17.1634 78.9147 17.1634C79.9547 17.1634 80.8614 17.3901 81.6347 17.8434C82.4214 18.2967 83.0214 18.9101 83.4347 19.6834C83.8614 20.4434 84.0747 21.2901 84.0747 22.2234ZM82.6547 22.1834C82.6681 21.3701 82.5014 20.6767 82.1547 20.1034C81.8214 19.5301 81.3614 19.0967 80.7747 18.8034C80.1881 18.5101 79.5481 18.3634 78.8547 18.3634C77.8147 18.3634 76.9281 18.6967 76.1947 19.3634C75.4614 20.0301 75.0547 20.9701 74.9747 22.1834H82.6547ZM96.0961 17.3234V28.2434H94.6961V26.3234C94.3761 27.0034 93.8828 27.5234 93.2161 27.8834C92.5495 28.2434 91.8028 28.4234 90.9761 28.4234C89.6695 28.4234 88.6028 28.0234 87.7761 27.2234C86.9495 26.4101 86.5361 25.2367 86.5361 23.7034V17.3234H87.9161V23.5434C87.9161 24.7301 88.2095 25.6367 88.7961 26.2634C89.3961 26.8901 90.2095 27.2034 91.2361 27.2034C92.2895 27.2034 93.1295 26.8701 93.7561 26.2034C94.3828 25.5367 94.6961 24.5567 94.6961 23.2634V17.3234H96.0961ZM103.052 28.4034C101.799 28.4034 100.772 28.1167 99.9724 27.5434C99.1857 26.9567 98.7457 26.1634 98.6524 25.1634H100.092C100.159 25.7767 100.446 26.2767 100.952 26.6634C101.472 27.0367 102.166 27.2234 103.032 27.2234C103.792 27.2234 104.386 27.0434 104.812 26.6834C105.252 26.3234 105.472 25.8767 105.472 25.3434C105.472 24.9701 105.352 24.6634 105.112 24.4234C104.872 24.1834 104.566 23.9967 104.192 23.8634C103.832 23.7167 103.339 23.5634 102.712 23.4034C101.899 23.1901 101.239 22.9767 100.732 22.7634C100.226 22.5501 99.7924 22.2367 99.4324 21.8234C99.0857 21.3967 98.9124 20.8301 98.9124 20.1234C98.9124 19.5901 99.0724 19.0967 99.3924 18.6434C99.7124 18.1901 100.166 17.8301 100.752 17.5634C101.339 17.2967 102.006 17.1634 102.752 17.1634C103.926 17.1634 104.872 17.4634 105.592 18.0634C106.312 18.6501 106.699 19.4634 106.752 20.5034H105.352C105.312 19.8634 105.059 19.3501 104.592 18.9634C104.139 18.5634 103.512 18.3634 102.712 18.3634C102.006 18.3634 101.432 18.5301 100.992 18.8634C100.552 19.1967 100.332 19.6101 100.332 20.1034C100.332 20.5301 100.459 20.8834 100.712 21.1634C100.979 21.4301 101.306 21.6434 101.692 21.8034C102.079 21.9501 102.599 22.1167 103.252 22.3034C104.039 22.5167 104.666 22.7234 105.132 22.9234C105.599 23.1234 105.999 23.4167 106.332 23.8034C106.666 24.1901 106.839 24.7034 106.852 25.3434C106.852 25.9301 106.692 26.4567 106.372 26.9234C106.052 27.3767 105.606 27.7367 105.032 28.0034C104.459 28.2701 103.799 28.4034 103.052 28.4034ZM108.848 22.7634C108.848 21.6434 109.068 20.6634 109.508 19.8234C109.961 18.9701 110.581 18.3167 111.368 17.8634C112.168 17.3967 113.068 17.1634 114.068 17.1634C115.108 17.1634 116.001 17.4034 116.748 17.8834C117.508 18.3634 118.054 18.9767 118.388 19.7234V17.3234H119.788V28.2434H118.388V25.8234C118.041 26.5701 117.488 27.1901 116.728 27.6834C115.981 28.1634 115.088 28.4034 114.048 28.4034C113.061 28.4034 112.168 28.1701 111.368 27.7034C110.581 27.2367 109.961 26.5767 109.508 25.7234C109.068 24.8701 108.848 23.8834 108.848 22.7634ZM118.388 22.7834C118.388 21.9034 118.208 21.1301 117.848 20.4634C117.488 19.7967 116.994 19.2834 116.368 18.9234C115.754 18.5634 115.074 18.3834 114.328 18.3834C113.554 18.3834 112.861 18.5567 112.248 18.9034C111.634 19.2501 111.148 19.7567 110.788 20.4234C110.441 21.0767 110.268 21.8567 110.268 22.7634C110.268 23.6567 110.441 24.4434 110.788 25.1234C111.148 25.7901 111.634 26.3034 112.248 26.6634C112.861 27.0101 113.554 27.1834 114.328 27.1834C115.074 27.1834 115.754 27.0034 116.368 26.6434C116.994 26.2834 117.488 25.7701 117.848 25.1034C118.208 24.4367 118.388 23.6634 118.388 22.7834ZM128.104 17.1234C129.41 17.1234 130.477 17.5301 131.304 18.3434C132.13 19.1434 132.544 20.3101 132.544 21.8434V28.2434H131.164V22.0034C131.164 20.8167 130.864 19.9101 130.264 19.2834C129.677 18.6567 128.87 18.3434 127.844 18.3434C126.79 18.3434 125.95 18.6767 125.324 19.3434C124.697 20.0101 124.384 20.9901 124.384 22.2834V28.2434H122.984V17.3234H124.384V19.1834C124.73 18.5167 125.23 18.0101 125.884 17.6634C126.537 17.3034 127.277 17.1234 128.104 17.1234ZM137.46 18.5034V25.2834C137.46 25.9501 137.587 26.4101 137.84 26.6634C138.093 26.9167 138.54 27.0434 139.18 27.0434H140.46V28.2434H138.96C137.973 28.2434 137.24 28.0167 136.76 27.5634C136.28 27.0967 136.04 26.3367 136.04 25.2834V18.5034H134.52V17.3234H136.04V14.5834H137.46V17.3234H140.46V18.5034H137.46ZM147.549 28.4034C146.522 28.4034 145.596 28.1767 144.769 27.7234C143.956 27.2567 143.309 26.6034 142.829 25.7634C142.362 24.9101 142.129 23.9167 142.129 22.7834C142.129 21.6501 142.369 20.6634 142.849 19.8234C143.329 18.9701 143.982 18.3167 144.809 17.8634C145.636 17.3967 146.562 17.1634 147.589 17.1634C148.616 17.1634 149.542 17.3967 150.369 17.8634C151.209 18.3167 151.862 18.9701 152.329 19.8234C152.809 20.6634 153.049 21.6501 153.049 22.7834C153.049 23.9034 152.809 24.8901 152.329 25.7434C151.849 26.5967 151.189 27.2567 150.349 27.7234C149.509 28.1767 148.576 28.4034 147.549 28.4034ZM147.549 27.1834C148.269 27.1834 148.936 27.0234 149.549 26.7034C150.162 26.3701 150.656 25.8767 151.029 25.2234C151.416 24.5567 151.609 23.7434 151.609 22.7834C151.609 21.8234 151.422 21.0167 151.049 20.3634C150.676 19.6967 150.182 19.2034 149.569 18.8834C148.956 18.5501 148.289 18.3834 147.569 18.3834C146.849 18.3834 146.182 18.5501 145.569 18.8834C144.956 19.2034 144.462 19.6967 144.089 20.3634C143.729 21.0167 143.549 21.8234 143.549 22.7834C143.549 23.7434 143.729 24.5567 144.089 25.2234C144.462 25.8767 144.949 26.3701 145.549 26.7034C146.162 27.0234 146.829 27.1834 147.549 27.1834ZM159.361 28.4034C158.108 28.4034 157.081 28.1167 156.281 27.5434C155.494 26.9567 155.054 26.1634 154.961 25.1634H156.401C156.468 25.7767 156.754 26.2767 157.261 26.6634C157.781 27.0367 158.474 27.2234 159.341 27.2234C160.101 27.2234 160.694 27.0434 161.121 26.6834C161.561 26.3234 161.781 25.8767 161.781 25.3434C161.781 24.9701 161.661 24.6634 161.421 24.4234C161.181 24.1834 160.874 23.9967 160.501 23.8634C160.141 23.7167 159.648 23.5634 159.021 23.4034C158.208 23.1901 157.548 22.9767 157.041 22.7634C156.534 22.5501 156.101 22.2367 155.741 21.8234C155.394 21.3967 155.221 20.8301 155.221 20.1234C155.221 19.5901 155.381 19.0967 155.701 18.6434C156.021 18.1901 156.474 17.8301 157.061 17.5634C157.648 17.2967 158.314 17.1634 159.061 17.1634C160.234 17.1634 161.181 17.4634 161.901 18.0634C162.621 18.6501 163.008 19.4634 163.061 20.5034H161.661C161.621 19.8634 161.368 19.3501 160.901 18.9634C160.448 18.5634 159.821 18.3634 159.021 18.3634C158.314 18.3634 157.741 18.5301 157.301 18.8634C156.861 19.1967 156.641 19.6101 156.641 20.1034C156.641 20.5301 156.768 20.8834 157.021 21.1634C157.288 21.4301 157.614 21.6434 158.001 21.8034C158.388 21.9501 158.908 22.1167 159.561 22.3034C160.348 22.5167 160.974 22.7234 161.441 22.9234C161.908 23.1234 162.308 23.4167 162.641 23.8034C162.974 24.1901 163.148 24.7034 163.161 25.3434C163.161 25.9301 163.001 26.4567 162.681 26.9234C162.361 27.3767 161.914 27.7367 161.341 28.0034C160.768 28.2701 160.108 28.4034 159.361 28.4034Z" fill="white"/>
<defs>
<linearGradient id="paint0_linear_69_12" x1="18.9765" y1="2.97251e-05" x2="36.6797" y2="27.3646" gradientUnits="userSpaceOnUse">
<stop stop-color="#35FFB7"/>
<stop offset="1" stop-color="#43A1F9"/>
</linearGradient>
</defs>
</svg>
