<svg width="152" height="37" viewBox="0 0 152 37" fill="none" xmlns="http://www.w3.org/2000/svg">
<path fill-rule="evenodd" clip-rule="evenodd" d="M4.49032 19.6903C4.45161 17.9709 5.47097 16.3968 6.70968 15.0677L6.68065 15.0935C1.97742 15.4548 -0.538707 20.329 1.28065 24.6161C2.70323 28.0419 6.8 29.2161 10.1226 28.4355C15.2065 27.4484 17.6581 22.4935 18.5742 17.9032C18.8221 16.6799 19.0316 15.4492 19.2026 14.2132C19.218 14.2776 19.2332 14.342 19.2484 14.4064C19.3423 14.7393 19.4293 15.0839 19.5175 15.4333C19.7746 16.4522 20.0422 17.5123 20.5226 18.4419C20.8381 19.0062 21.3112 19.4664 21.8842 19.766C22.4571 20.0656 23.1049 20.1918 23.7484 20.129C24.2097 20.0786 24.6559 19.9352 25.0602 19.7073C25.4644 19.4794 25.8181 19.1718 26.1 18.8032C26.523 18.211 26.8749 17.5711 27.1484 16.8968C27.3262 16.4956 27.5022 16.0927 27.6782 15.69C28.3206 14.2196 28.9619 12.7516 29.6861 11.3824C30.0308 13.1547 30.236 14.9655 30.4432 16.7932C30.4738 17.0628 30.5044 17.3329 30.5355 17.6032C30.7765 19.9002 30.9598 22.2292 31.1444 24.5765C31.2588 26.03 31.3737 27.4905 31.5032 28.9548H38.3452C38.6763 24.9698 38.728 20.9664 38.5 16.9742C38.271 13.2935 37.8871 9.49998 36.6742 5.91934C35.3774 1.99998 32.429 -0.551631 28.1903 1.46127C25.6418 2.8119 24.093 5.30608 22.9963 8.0448C22.8151 7.64728 22.633 7.26442 22.4516 6.90643C22.4047 6.81875 22.3586 6.73152 22.3127 6.64474C21.8722 5.81206 21.4533 5.02021 20.6032 4.25482C19.7677 3.45482 18.1581 3.11611 17.0548 3.81611C15.4912 4.7409 15.3046 6.59806 15.1478 8.15933C15.1383 8.25362 15.1289 8.34683 15.1194 8.43869C15.0744 8.96747 15.0332 9.49826 14.9919 10.0294C14.8109 12.3592 14.6294 14.6954 14.1355 16.8968C13.4645 19.8161 12.3032 23.2451 9.27097 23.8613C8.67825 23.9266 8.07841 23.8683 7.5094 23.6899C6.94039 23.5115 6.41458 23.217 5.96524 22.825C5.51591 22.433 5.15282 21.952 4.89894 21.4124C4.64506 20.8728 4.50592 20.2864 4.49032 19.6903ZM25.9348 14.9259C25.991 15.0258 26.0473 15.117 26.1032 15.1968C26.0906 15.1592 26.0733 15.1234 26.0516 15.0903C26.0144 15.0342 25.9754 14.9793 25.9348 14.9259ZM31.5502 8.66995C31.575 8.6584 31.5992 8.64585 31.6226 8.63224C31.7276 8.56625 31.668 8.57277 31.5502 8.66995ZM32.7452 8.03871C32.8604 8.31961 32.9238 8.61907 32.9323 8.92258C32.9324 8.94128 32.9387 8.95942 32.9503 8.97411C32.9619 8.9888 32.978 8.9992 32.9962 9.00364C33.0144 9.00809 33.0335 9.00634 33.0506 8.99867C33.0676 8.99099 33.0816 8.97784 33.0903 8.96129C33.2809 8.60674 33.3911 8.21459 33.413 7.81267C33.4349 7.41076 33.3681 7.00894 33.2173 6.63576C33.0665 6.26257 32.8353 5.92717 32.5403 5.65336C32.2453 5.37956 31.8936 5.17408 31.5102 5.0515C31.1268 4.92892 30.7211 4.89225 30.3219 4.9441C29.9228 4.99595 29.5399 5.13505 29.2006 5.35151C28.8612 5.56798 28.5737 5.8565 28.3584 6.1966C28.1431 6.53669 28.0053 6.92002 27.9549 7.31935C27.9538 7.32806 27.9556 7.3369 27.9602 7.3444C27.9648 7.35189 27.9718 7.35761 27.98 7.36061C27.9883 7.36362 27.9973 7.36372 28.0056 7.36091C28.014 7.3581 28.0211 7.35255 28.0258 7.34516C28.3227 6.96079 28.7166 6.6624 29.1669 6.48063C29.6173 6.29886 30.1079 6.24027 30.5885 6.31089C31.069 6.3815 31.522 6.57877 31.901 6.88243C32.2801 7.18609 32.5714 7.58518 32.7452 8.03871Z" fill="url(#paint0_linear_31_13)"/>
<path d="M43.42 19.26V26.04C43.42 26.7067 43.5467 27.1667 43.8 27.42C44.0533 27.6733 44.5 27.8 45.14 27.8H46.42V29H44.92C43.9333 29 43.2 28.7733 42.72 28.32C42.24 27.8533 42 27.0933 42 26.04V19.26H40.48V18.08H42V15.34H43.42V18.08H46.42V19.26H43.42ZM53.9289 17.88C54.7556 17.88 55.4956 18.0533 56.1489 18.4C56.8156 18.7467 57.3356 19.28 57.7089 20C58.0956 20.7067 58.2889 21.5733 58.2889 22.6V29H56.9089V22.76C56.9089 21.5733 56.6089 20.6667 56.0089 20.04C55.4222 19.4133 54.6156 19.1 53.5889 19.1C52.5356 19.1 51.6956 19.4333 51.0689 20.1C50.4422 20.7667 50.1289 21.7467 50.1289 23.04V29H48.7289V14.2H50.1289V19.94C50.4756 19.2867 50.9822 18.78 51.6489 18.42C52.3289 18.06 53.0889 17.88 53.9289 17.88ZM71.2652 22.98C71.2652 23.46 71.2518 23.8267 71.2252 24.08H62.1652C62.2052 24.9067 62.4052 25.6133 62.7652 26.2C63.1252 26.7867 63.5985 27.2333 64.1852 27.54C64.7718 27.8333 65.4118 27.98 66.1052 27.98C67.0118 27.98 67.7718 27.76 68.3852 27.32C69.0118 26.88 69.4252 26.2867 69.6252 25.54H71.1052C70.8385 26.6067 70.2652 27.48 69.3852 28.16C68.5185 28.8267 67.4252 29.16 66.1052 29.16C65.0785 29.16 64.1585 28.9333 63.3452 28.48C62.5318 28.0133 61.8918 27.36 61.4252 26.52C60.9718 25.6667 60.7452 24.6733 60.7452 23.54C60.7452 22.4067 60.9718 21.4133 61.4252 20.56C61.8785 19.7067 62.5118 19.0533 63.3252 18.6C64.1385 18.1467 65.0652 17.92 66.1052 17.92C67.1452 17.92 68.0518 18.1467 68.8252 18.6C69.6118 19.0533 70.2118 19.6667 70.6252 20.44C71.0518 21.2 71.2652 22.0467 71.2652 22.98ZM69.8452 22.94C69.8585 22.1267 69.6918 21.4333 69.3452 20.86C69.0118 20.2867 68.5518 19.8533 67.9652 19.56C67.3785 19.2667 66.7385 19.12 66.0452 19.12C65.0052 19.12 64.1185 19.4533 63.3852 20.12C62.6518 20.7867 62.2452 21.7267 62.1652 22.94H69.8452ZM83.2866 18.08V29H81.8866V27.08C81.5666 27.76 81.0732 28.28 80.4066 28.64C79.7399 29 78.9932 29.18 78.1666 29.18C76.8599 29.18 75.7932 28.78 74.9666 27.98C74.1399 27.1667 73.7266 25.9933 73.7266 24.46V18.08H75.1066V24.3C75.1066 25.4867 75.3999 26.3933 75.9866 27.02C76.5866 27.6467 77.3999 27.96 78.4266 27.96C79.4799 27.96 80.3199 27.6267 80.9466 26.96C81.5732 26.2933 81.8866 25.3133 81.8866 24.02V18.08H83.2866ZM90.2428 29.16C88.9895 29.16 87.9628 28.8733 87.1628 28.3C86.3761 27.7133 85.9361 26.92 85.8428 25.92H87.2828C87.3495 26.5333 87.6361 27.0333 88.1428 27.42C88.6628 27.7933 89.3561 27.98 90.2228 27.98C90.9828 27.98 91.5761 27.8 92.0028 27.44C92.4428 27.08 92.6628 26.6333 92.6628 26.1C92.6628 25.7267 92.5428 25.42 92.3028 25.18C92.0628 24.94 91.7561 24.7533 91.3828 24.62C91.0228 24.4733 90.5295 24.32 89.9028 24.16C89.0895 23.9467 88.4295 23.7333 87.9228 23.52C87.4161 23.3067 86.9828 22.9933 86.6228 22.58C86.2761 22.1533 86.1028 21.5867 86.1028 20.88C86.1028 20.3467 86.2628 19.8533 86.5828 19.4C86.9028 18.9467 87.3561 18.5867 87.9428 18.32C88.5295 18.0533 89.1961 17.92 89.9428 17.92C91.1161 17.92 92.0628 18.22 92.7828 18.82C93.5028 19.4067 93.8895 20.22 93.9428 21.26H92.5428C92.5028 20.62 92.2495 20.1067 91.7828 19.72C91.3295 19.32 90.7028 19.12 89.9028 19.12C89.1961 19.12 88.6228 19.2867 88.1828 19.62C87.7428 19.9533 87.5228 20.3667 87.5228 20.86C87.5228 21.2867 87.6495 21.64 87.9028 21.92C88.1695 22.1867 88.4961 22.4 88.8828 22.56C89.2695 22.7067 89.7895 22.8733 90.4428 23.06C91.2295 23.2733 91.8561 23.48 92.3228 23.68C92.7895 23.88 93.1895 24.1733 93.5228 24.56C93.8561 24.9467 94.0295 25.46 94.0428 26.1C94.0428 26.6867 93.8828 27.2133 93.5628 27.68C93.2428 28.1333 92.7961 28.4933 92.2228 28.76C91.6495 29.0267 90.9895 29.16 90.2428 29.16ZM96.0381 23.52C96.0381 22.4 96.2581 21.42 96.6981 20.58C97.1515 19.7267 97.7715 19.0733 98.5581 18.62C99.3581 18.1533 100.258 17.92 101.258 17.92C102.298 17.92 103.191 18.16 103.938 18.64C104.698 19.12 105.245 19.7333 105.578 20.48V18.08H106.978V29H105.578V26.58C105.231 27.3267 104.678 27.9467 103.918 28.44C103.171 28.92 102.278 29.16 101.238 29.16C100.251 29.16 99.3581 28.9267 98.5581 28.46C97.7715 27.9933 97.1515 27.3333 96.6981 26.48C96.2581 25.6267 96.0381 24.64 96.0381 23.52ZM105.578 23.54C105.578 22.66 105.398 21.8867 105.038 21.22C104.678 20.5533 104.185 20.04 103.558 19.68C102.945 19.32 102.265 19.14 101.518 19.14C100.745 19.14 100.051 19.3133 99.4381 19.66C98.8248 20.0067 98.3381 20.5133 97.9781 21.18C97.6315 21.8333 97.4581 22.6133 97.4581 23.52C97.4581 24.4133 97.6315 25.2 97.9781 25.88C98.3381 26.5467 98.8248 27.06 99.4381 27.42C100.051 27.7667 100.745 27.94 101.518 27.94C102.265 27.94 102.945 27.76 103.558 27.4C104.185 27.04 104.678 26.5267 105.038 25.86C105.398 25.1933 105.578 24.42 105.578 23.54ZM115.294 17.88C116.601 17.88 117.668 18.2867 118.494 19.1C119.321 19.9 119.734 21.0667 119.734 22.6V29H118.354V22.76C118.354 21.5733 118.054 20.6667 117.454 20.04C116.868 19.4133 116.061 19.1 115.034 19.1C113.981 19.1 113.141 19.4333 112.514 20.1C111.888 20.7667 111.574 21.7467 111.574 23.04V29H110.174V18.08H111.574V19.94C111.921 19.2733 112.421 18.7667 113.074 18.42C113.728 18.06 114.468 17.88 115.294 17.88ZM124.65 19.26V26.04C124.65 26.7067 124.777 27.1667 125.03 27.42C125.284 27.6733 125.73 27.8 126.37 27.8H127.65V29H126.15C125.164 29 124.43 28.7733 123.95 28.32C123.47 27.8533 123.23 27.0933 123.23 26.04V19.26H121.71V18.08H123.23V15.34H124.65V18.08H127.65V19.26H124.65ZM134.739 29.16C133.713 29.16 132.786 28.9333 131.959 28.48C131.146 28.0133 130.499 27.36 130.019 26.52C129.553 25.6667 129.319 24.6733 129.319 23.54C129.319 22.4067 129.559 21.42 130.039 20.58C130.519 19.7267 131.173 19.0733 131.999 18.62C132.826 18.1533 133.753 17.92 134.779 17.92C135.806 17.92 136.733 18.1533 137.559 18.62C138.399 19.0733 139.053 19.7267 139.519 20.58C139.999 21.42 140.239 22.4067 140.239 23.54C140.239 24.66 139.999 25.6467 139.519 26.5C139.039 27.3533 138.379 28.0133 137.539 28.48C136.699 28.9333 135.766 29.16 134.739 29.16ZM134.739 27.94C135.459 27.94 136.126 27.78 136.739 27.46C137.353 27.1267 137.846 26.6333 138.219 25.98C138.606 25.3133 138.799 24.5 138.799 23.54C138.799 22.58 138.613 21.7733 138.239 21.12C137.866 20.4533 137.373 19.96 136.759 19.64C136.146 19.3067 135.479 19.14 134.759 19.14C134.039 19.14 133.373 19.3067 132.759 19.64C132.146 19.96 131.653 20.4533 131.279 21.12C130.919 21.7733 130.739 22.58 130.739 23.54C130.739 24.5 130.919 25.3133 131.279 25.98C131.653 26.6333 132.139 27.1267 132.739 27.46C133.353 27.78 134.019 27.94 134.739 27.94ZM146.551 29.16C145.298 29.16 144.271 28.8733 143.471 28.3C142.685 27.7133 142.245 26.92 142.151 25.92H143.591C143.658 26.5333 143.945 27.0333 144.451 27.42C144.971 27.7933 145.665 27.98 146.531 27.98C147.291 27.98 147.885 27.8 148.311 27.44C148.751 27.08 148.971 26.6333 148.971 26.1C148.971 25.7267 148.851 25.42 148.611 25.18C148.371 24.94 148.065 24.7533 147.691 24.62C147.331 24.4733 146.838 24.32 146.211 24.16C145.398 23.9467 144.738 23.7333 144.231 23.52C143.725 23.3067 143.291 22.9933 142.931 22.58C142.585 22.1533 142.411 21.5867 142.411 20.88C142.411 20.3467 142.571 19.8533 142.891 19.4C143.211 18.9467 143.665 18.5867 144.251 18.32C144.838 18.0533 145.505 17.92 146.251 17.92C147.425 17.92 148.371 18.22 149.091 18.82C149.811 19.4067 150.198 20.22 150.251 21.26H148.851C148.811 20.62 148.558 20.1067 148.091 19.72C147.638 19.32 147.011 19.12 146.211 19.12C145.505 19.12 144.931 19.2867 144.491 19.62C144.051 19.9533 143.831 20.3667 143.831 20.86C143.831 21.2867 143.958 21.64 144.211 21.92C144.478 22.1867 144.805 22.4 145.191 22.56C145.578 22.7067 146.098 22.8733 146.751 23.06C147.538 23.2733 148.165 23.48 148.631 23.68C149.098 23.88 149.498 24.1733 149.831 24.56C150.165 24.9467 150.338 25.46 150.351 26.1C150.351 26.6867 150.191 27.2133 149.871 27.68C149.551 28.1333 149.105 28.4933 148.531 28.76C147.958 29.0267 147.298 29.16 146.551 29.16Z" fill="white"/>
<defs>
<linearGradient id="paint0_linear_31_13" x1="19.6629" y1="0.75656" x2="37.3662" y2="28.1211" gradientUnits="userSpaceOnUse">
<stop stop-color="#35FFB7"/>
<stop offset="1" stop-color="#43A1F9"/>
</linearGradient>
</defs>
</svg>
